# xmcd CD database file
# Copyright (C) 1995-1998 Ti Kan
#
# Track frame offsets:
#	150
#	10927
#	17475
#	25915
#	37050
#	49432
#	61990
#	79920
#	95682
#	108610
#	115162
#	126525
#	142597
#	155847
#	166422
#	176647
#	188525
#	204750
#
# Disc length: 2840 seconds
#
# Revision: 1
# Processed by: cddbd v1.5.1PL0 Copyright (c) Steve Scherf et al.
# Submitted via: CDex 1.30Release
#
DISCID=f30b1612
DTITLE=Mary Lee and Nancy - Singin' Sidesaddle
DYEAR=1997
DGENRE=Country
TTITLE0=Back in the Saddle Again
TTITLE1=Buffalo Gals
TTITLE2=Oh, Susanna
TTITLE3=Cows are Cool
TTITLE4=I am a Cowboy
TTITLE5=Down in the Valley
TTITLE6=Navajo Night Chant
TTITLE7=Sweet Betsy from Pike
TTITLE8=Red River Valley/You are my Sunshine
TTITLE9=Working on the Railroad
TTITLE10=My Darlin' Clementine
TTITLE11=Scarlet Ribbons
TTITLE12=Beautiful Dreamer
TTITLE13=Jingle Jangle Jingle
TTITLE14=Skip to my Lou
TTITLE15=Old Texas/Sleep Little Cowboy
TTITLE16=Home on the Range
TTITLE17=Happy Trails
EXTD=YEAR: 1997 ID3G:   2
EXTT0=
EXTT1=
EXTT2=
EXTT3=
EXTT4=
EXTT5=
EXTT6=
EXTT7=
EXTT8=
EXTT9=
EXTT10=
EXTT11=
EXTT12=
EXTT13=
EXTT14=
EXTT15=
EXTT16=
EXTT17=
PLAYORDER=
